<?xml version="1.0" standalone="no"?>
<!DOCTYPE svg PUBLIC "-//W3C//DTD SVG 20010904//EN"
 "http://www.w3.org/TR/2001/REC-SVG-20010904/DTD/svg10.dtd">
<svg version="1.0" xmlns="http://www.w3.org/2000/svg"
 width="150.000000pt" height="75.000000pt" viewBox="10 125 1214.000000 447.000000"
 preserveAspectRatio="xMidYMid meet">

<g transform="translate(0.000000,447.000000) scale(0.100000,-0.100000)"
fill="#000000" stroke="none">
<path d="M2330 4004 c-462 -59 -915 -229 -1260 -472 -119 -83 -341 -303 -403
-398 -97 -147 -158 -297 -178 -434 -26 -184 46 -397 191 -565 59 -67 90 -86
114 -65 25 20 19 36 -32 93 -96 106 -152 206 -183 325 -23 90 -24 157 -4 252
99 468 672 926 1395 1114 264 68 409 87 655 87 337 0 548 -63 705 -207 116
-108 163 -213 162 -369 0 -120 -27 -218 -96 -337 -261 -458 -931 -808 -1911
-998 -88 -17 -179 -35 -202 -39 -32 -6 -43 -5 -43 4 0 54 335 719 457 909 58
89 64 126 30 160 -28 28 -65 33 -98 15 -11 -6 -47 -51 -80 -101 -201 -307
-436 -868 -554 -1323 -44 -170 -77 -346 -73 -387 3 -29 7 -33 32 -33 28 0 28
0 66 150 34 134 85 290 150 458 14 33 29 57 37 57 38 0 144 -35 207 -68 77
-40 166 -117 202 -174 13 -21 24 -39 24 -42 0 -2 -55 -34 -122 -71 -441 -243
-758 -511 -762 -643 -2 -85 64 -122 220 -122 232 0 534 152 702 354 50 60 104
161 122 228 13 48 10 186 -5 221 -6 15 11 26 111 73 260 123 507 206 708 239
30 5 37 3 33 -7 -67 -153 -81 -236 -53 -330 19 -67 54 -111 109 -140 34 -17
54 -20 127 -16 77 4 97 9 171 45 99 48 176 101 295 203 94 81 284 285 284 306
0 16 -28 44 -44 44 -6 0 -55 -49 -109 -109 -217 -246 -450 -410 -582 -411 -57
0 -88 17 -110 60 -16 32 -20 90 -6 90 18 0 166 103 217 152 89 84 120 149 103
213 -13 46 -55 68 -131 67 -55 -1 -135 -30 -178 -66 -8 -7 -58 -18 -110 -24
-203 -25 -463 -110 -766 -252 l-105 -49 -62 66 c-71 76 -155 134 -239 164 -32
12 -58 25 -58 29 0 4 55 17 123 30 174 32 518 121 679 174 702 233 1204 576
1393 954 93 184 99 392 17 546 -44 84 -163 194 -267 248 -135 70 -230 97 -432
127 -98 15 -454 12 -583 -5z m638 -2055 c4 -23 -52 -94 -115 -144 -61 -49
-112 -79 -119 -72 -3 2 12 37 33 78 45 87 127 162 171 157 15 -2 28 -10 30
-19z m-1318 -548 c-68 -270 -423 -539 -717 -544 -112 -1 -120 37 -32 143 93
112 334 289 604 444 l150 85 3 -41 c2 -23 -2 -62 -8 -87z"/>
<path d="M6238 3959 c-251 -37 -593 -256 -848 -543 -308 -347 -515 -707 -750
-1301 l-68 -170 -51 -3 -52 -3 7 28 c57 250 113 451 194 693 73 218 129 352
225 538 41 80 75 157 75 172 0 37 -28 69 -67 76 -46 9 -75 -25 -160 -193 -158
-308 -293 -730 -378 -1179 -10 -51 -21 -98 -25 -105 -6 -9 -21 -4 -58 20 -136
87 -296 95 -316 15 -9 -35 16 -71 72 -102 45 -25 168 -52 239 -52 42 0 45 -2
40 -22 -10 -41 -56 -349 -77 -513 -82 -651 -81 -648 -66 -663 13 -13 18 -13
38 0 19 13 40 68 112 294 187 594 228 715 241 712 7 -2 73 -60 146 -129 241
-227 379 -329 529 -387 328 -128 631 -15 1028 384 68 68 124 124 126 124 2 0
6 -23 9 -51 8 -63 41 -123 90 -163 38 -30 42 -31 142 -31 l103 0 93 48 c100
51 216 132 297 210 28 26 53 47 55 47 2 0 7 -22 10 -50 11 -92 56 -150 115
-150 72 0 183 71 323 207 58 57 108 103 110 103 2 0 3 -42 1 -92 -8 -223 67
-368 191 -368 56 0 152 35 233 86 40 24 74 44 78 44 3 0 6 -26 6 -57 0 -77 24
-223 51 -303 83 -257 219 -319 412 -190 84 56 160 134 348 355 181 212 254
291 336 357 200 164 395 200 564 106 49 -27 74 -21 74 17 0 26 -7 33 -55 57
-191 94 -395 65 -595 -85 -83 -62 -221 -207 -412 -432 -169 -199 -198 -230
-276 -288 -69 -52 -111 -62 -162 -37 -91 44 -132 181 -142 467 l-6 162 94 99
c110 114 254 290 368 450 408 571 664 1231 597 1536 -34 152 -119 190 -260
119 -274 -139 -605 -653 -782 -1217 -95 -301 -141 -560 -160 -907 l-6 -107
-56 -42 c-67 -50 -165 -98 -216 -107 -46 -7 -82 16 -103 65 -19 46 -13 210 13
354 20 110 13 143 -31 154 -33 8 -75 -10 -82 -36 -7 -27 -25 -25 -54 6 -40 44
-116 74 -185 74 -118 0 -186 -40 -278 -164 -95 -129 -327 -324 -456 -384 -34
-16 -79 -28 -116 -30 -56 -4 -64 -2 -92 24 -20 18 -35 45 -41 71 l-9 41 84 51
c92 57 192 144 224 196 48 78 44 147 -10 179 -42 24 -136 23 -195 -3 -58 -26
-141 -104 -170 -161 -30 -60 -190 -244 -309 -357 -178 -169 -332 -271 -481
-320 -115 -37 -257 -37 -370 0 -171 57 -321 168 -628 466 l-89 85 18 58 c9 32
23 58 30 58 34 0 260 32 354 51 411 80 778 230 1080 440 358 251 605 593 691
959 18 74 18 272 0 335 -65 234 -253 344 -523 304z m197 -113 c250 -116 223
-565 -60 -986 -231 -344 -615 -620 -1080 -775 -216 -72 -625 -151 -625 -120 0
19 93 249 169 420 175 389 386 723 626 988 223 248 472 420 695 483 25 7 86
13 135 13 74 1 99 -3 140 -23z m2900 -100 c34 -34 48 -98 42 -191 -24 -373
-310 -978 -700 -1484 -122 -158 -254 -307 -263 -298 -7 7 22 214 52 372 55
282 155 624 253 860 111 266 281 545 402 660 111 105 168 127 214 81z m-1710
-1786 c18 -11 41 -32 50 -46 17 -26 17 -26 -41 -86 -64 -64 -204 -185 -244
-209 -38 -23 -67 -28 -86 -14 -25 18 -12 104 28 185 32 67 118 163 160 179 40
16 99 12 133 -9z m-841 1 c11 -18 -14 -62 -62 -110 -44 -44 -148 -121 -164
-121 -18 0 38 117 75 159 56 62 135 99 151 72z m-2254 -121 c0 -23 -4 -24 -31
-10 -27 15 -24 30 6 30 18 0 25 -5 25 -20z m-42 -106 c2 -1 -27 -96 -64 -210
-37 -115 -69 -204 -71 -198 -4 12 75 423 84 437 3 5 15 0 26 -10 12 -10 23
-19 25 -19z"/>
<path d="M2917 924 c-4 -4 -7 -135 -7 -291 l0 -283 25 0 25 0 2 265 3 265 140
-265 c120 -229 142 -265 162 -265 l23 0 0 290 c0 283 0 290 -20 290 -19 0 -20
-7 -20 -242 0 -133 -3 -238 -7 -234 -5 4 -63 112 -130 239 -119 228 -122 232
-155 235 -19 2 -37 0 -41 -4z"/>
<path d="M4490 641 c0 -283 1 -291 20 -291 18 0 20 8 22 128 l3 127 91 5 c100
6 132 20 164 73 24 39 26 116 5 161 -26 55 -80 77 -201 84 l-104 5 0 -292z
m219 225 c58 -31 70 -125 22 -178 -28 -32 -33 -33 -115 -37 l-86 -3 0 116 0
116 75 0 c46 0 87 -6 104 -14z"/>
<path d="M5541 904 c-15 -20 -21 -41 -21 -80 0 -53 0 -54 -30 -54 -23 0 -30
-4 -30 -20 0 -16 7 -20 30 -20 l30 0 0 -190 c0 -183 1 -190 20 -190 19 0 20 7
20 190 l0 190 40 0 c33 0 40 3 40 20 0 17 -7 20 -40 20 l-40 0 0 50 c0 42 4
52 25 66 14 9 32 13 45 9 16 -5 20 -2 20 14 0 18 -6 21 -44 21 -36 0 -48 -5
-65 -26z"/>
<path d="M3820 830 l0 -60 -30 0 c-23 0 -30 -4 -30 -20 0 -16 7 -20 30 -20
l30 0 0 -164 c0 -91 4 -176 9 -189 11 -27 56 -43 91 -32 31 10 25 35 -8 35
-49 0 -52 11 -52 187 l0 163 40 0 c33 0 40 3 40 20 0 17 -7 20 -40 20 l-40 0
0 60 c0 53 -2 60 -20 60 -18 0 -20 -7 -20 -60z"/>
<path d="M6430 830 l0 -60 -30 0 c-23 0 -30 -4 -30 -20 0 -16 7 -20 30 -20
l30 0 0 -164 c0 -91 4 -176 9 -189 11 -27 56 -43 91 -32 31 10 25 35 -8 35
-49 0 -52 11 -52 187 l0 163 40 0 c33 0 40 3 40 20 0 17 -7 20 -40 20 l-40 0
0 60 c0 53 -2 60 -20 60 -18 0 -20 -7 -20 -60z"/>
<path d="M5006 770 c-91 -28 -142 -173 -105 -303 36 -132 203 -166 264 -53 16
30 17 38 6 48 -11 11 -15 10 -19 -2 -3 -8 -20 -30 -39 -49 -30 -30 -38 -33
-74 -28 -63 8 -91 43 -104 129 l-7 47 128 3 129 3 -3 50 c-7 114 -85 182 -176
155z m83 -45 c27 -14 43 -41 55 -97 l6 -28 -110 0 c-122 0 -121 -1 -91 66 32
69 81 90 140 59z"/>
<path d="M5796 770 c-91 -28 -142 -173 -105 -303 36 -132 203 -166 264 -53 16
30 17 38 6 48 -11 11 -15 10 -19 -2 -3 -8 -20 -30 -38 -47 -23 -24 -41 -33
-66 -33 -62 0 -100 44 -113 132 l-7 47 128 3 129 3 -3 50 c-7 114 -85 182
-176 155z m83 -45 c27 -14 43 -41 55 -97 l6 -28 -111 0 -111 0 6 25 c13 50 25
73 52 94 31 25 64 27 103 6z"/>
<path d="M6143 769 c-69 -20 -108 -109 -101 -234 4 -69 9 -90 31 -123 56 -86
169 -91 227 -10 16 22 27 44 24 49 -11 18 -33 8 -50 -20 -34 -57 -99 -67 -144
-23 -93 93 -50 332 60 332 31 0 70 -30 95 -73 7 -12 14 -14 25 -7 25 16 -16
79 -65 101 -44 21 -56 21 -102 8z"/>
<path d="M3476 740 c-50 -45 -69 -102 -65 -197 5 -103 29 -150 91 -181 63 -32
110 -23 160 29 62 65 75 191 29 294 -39 87 -146 115 -215 55z m147 -28 c33
-28 47 -77 47 -158 0 -59 -5 -85 -21 -114 -36 -64 -96 -78 -148 -34 -77 65
-65 279 19 322 30 15 76 8 103 -16z"/>
<path d="M5287 764 c-4 -4 -7 -99 -7 -211 l0 -203 25 0 25 0 0 141 c0 167 11
203 72 228 23 10 38 23 38 34 0 28 -39 20 -75 -16 l-34 -34 -3 31 c-3 29 -25
46 -41 30z"/>
</g>
</svg>
