<?xml version="1.0" standalone="no"?>
<!DOCTYPE svg PUBLIC "-//W3C//DTD SVG 20010904//EN"
 "http://www.w3.org/TR/2001/REC-SVG-20010904/DTD/svg10.dtd">
<svg version="1.0" xmlns="http://www.w3.org/2000/svg"
 width="238.000000pt" height="50.000000pt" viewBox="800 250 980.000000 450.000000"
 preserveAspectRatio="xMidYMid meet">

<g transform="translate(0.000000,920.000000) scale(0.100000,-0.100000)"
fill="#000000" stroke="none">
<path d="M4165 6633 c-428 -36 -768 -127 -1115 -299 -500 -248 -832 -616 -899
-998 -36 -200 30 -403 191 -596 62 -74 80 -85 109 -70 31 17 22 48 -32 108
-245 274 -254 577 -27 916 61 90 277 302 393 383 304 215 700 372 1116 444
172 29 484 37 628 15 295 -45 485 -161 576 -351 35 -72 39 -88 43 -180 9 -220
-81 -407 -299 -622 -345 -340 -877 -572 -1684 -736 -189 -39 -265 -51 -265
-43 0 40 311 664 428 857 54 89 82 146 82 166 0 63 -80 95 -133 53 -38 -30
-146 -208 -236 -388 -184 -368 -333 -777 -420 -1157 -59 -257 -60 -295 -5
-295 30 0 36 13 64 145 23 104 110 368 154 468 29 63 19 61 120 35 126 -31
250 -117 320 -222 l26 -39 -157 -89 c-273 -155 -525 -336 -630 -452 -169 -187
-122 -301 122 -299 127 1 237 32 387 110 219 114 369 268 428 438 22 63 27
185 11 242 l-9 31 127 60 c208 99 379 162 566 208 123 30 160 31 150 7 -37
-87 -48 -128 -52 -193 -15 -205 101 -315 293 -281 120 22 301 136 475 299 98
92 229 239 229 257 0 18 -28 45 -45 45 -7 0 -57 -49 -109 -109 -103 -115 -242
-242 -341 -308 -180 -121 -303 -135 -349 -39 -28 60 -23 69 72 129 199 126
296 275 230 354 -19 23 -72 43 -112 43 -44 0 -132 -32 -176 -65 -23 -17 -47
-25 -74 -25 -142 0 -442 -92 -758 -232 l-158 -70 -75 76 c-59 58 -96 86 -167
121 -49 25 -96 45 -104 45 -8 0 -14 4 -14 9 0 5 21 12 48 16 227 32 643 143
917 243 220 81 456 193 624 297 198 122 405 302 511 445 343 462 167 909 -413
1050 -153 38 -417 57 -582 43z m463 -2074 c4 -23 -52 -94 -115 -144 -59 -47
-112 -79 -119 -73 -6 6 46 111 73 146 56 74 152 117 161 71z m-1318 -549 c-67
-268 -424 -538 -717 -543 -112 -1 -120 37 -32 143 93 112 334 289 604 444
l150 85 3 -41 c2 -23 -2 -63 -8 -88z"/>
<path d="M7888 6570 c-245 -42 -551 -233 -803 -504 -321 -344 -563 -760 -810
-1393 l-47 -123 -48 0 -48 0 24 103 c100 426 259 889 392 1137 94 176 93 176
86 204 -8 32 -48 66 -78 66 -38 0 -64 -28 -121 -129 -160 -282 -304 -714 -406
-1210 -16 -80 -31 -146 -33 -148 -1 -2 -34 15 -72 37 -83 48 -120 60 -197 60
-48 0 -62 -4 -82 -25 -33 -32 -32 -66 3 -100 48 -49 163 -84 275 -85 51 0 58
-2 53 -17 -16 -53 -60 -363 -117 -826 -39 -311 -41 -339 -26 -354 13 -13 21
-14 39 -6 19 9 33 42 81 194 178 563 262 819 268 819 4 0 67 -57 141 -126 365
-346 567 -454 823 -441 226 11 444 137 730 419 77 76 141 138 141 138 1 0 4
-22 6 -49 15 -150 129 -230 289 -201 114 21 243 95 405 231 45 38 84 69 88 69
3 0 6 -12 6 -27 0 -49 21 -106 50 -135 70 -70 206 -7 416 194 l81 78 6 -132
c5 -143 19 -197 63 -255 39 -51 77 -66 150 -60 68 5 160 43 238 96 l44 31 7
-63 c36 -340 114 -512 247 -548 136 -36 280 70 589 436 245 289 381 409 524
461 127 46 235 40 354 -21 28 -13 57 -22 65 -19 18 7 29 35 21 56 -7 19 -123
73 -185 87 -115 26 -265 -1 -389 -72 -99 -55 -263 -214 -443 -427 -254 -300
-366 -400 -450 -400 -113 0 -179 180 -182 496 l-1 151 100 104 c365 380 735
978 875 1417 65 200 83 297 84 437 1 123 -1 133 -27 186 -21 43 -37 61 -64 74
-174 83 -505 -235 -752 -725 -220 -434 -344 -905 -368 -1389 l-6 -133 -51 -40
c-56 -45 -165 -102 -213 -112 -46 -10 -87 14 -107 64 -22 54 -20 152 4 295 11
64 20 132 20 149 0 67 -78 91 -122 38 l-24 -29 -35 30 c-56 48 -116 71 -189
71 -89 0 -160 -33 -222 -105 -26 -30 -70 -80 -98 -111 -78 -90 -207 -205 -302
-268 -153 -102 -262 -127 -318 -72 -16 17 -32 46 -36 67 -8 44 -16 34 107 115
101 66 176 142 207 209 24 51 24 57 11 95 -49 141 -318 65 -410 -116 -53 -105
-312 -376 -480 -503 -104 -78 -269 -165 -351 -184 -60 -14 -216 -14 -276 0
-81 19 -227 96 -329 173 -85 63 -240 203 -391 350 l-42 42 18 54 19 55 94 12
c433 55 738 145 1072 315 394 200 689 485 862 828 85 169 125 321 125 476 0
105 -14 172 -52 250 -83 172 -271 252 -500 214z m207 -114 c250 -116 223 -565
-60 -986 -259 -385 -708 -683 -1237 -820 -249 -64 -468 -99 -468 -74 0 18 117
303 188 461 305 671 765 1210 1181 1384 112 47 156 57 256 58 74 1 99 -3 140
-23z m2900 -100 c34 -34 48 -98 42 -191 -26 -398 -354 -1067 -774 -1577 -99
-120 -183 -211 -190 -205 -8 8 26 234 62 412 56 281 155 607 254 844 104 248
276 526 396 640 109 103 164 123 210 77z m-1719 -1782 c19 -9 44 -30 56 -46
l21 -30 -59 -60 c-64 -64 -204 -185 -244 -209 -38 -23 -67 -28 -86 -14 -25 18
-12 104 28 185 32 67 118 163 160 179 36 15 87 13 124 -5z m-832 -3 c11 -18
-14 -62 -62 -110 -48 -48 -159 -128 -166 -120 -9 9 36 107 65 143 61 73 145
117 163 87z m-2254 -121 c0 -23 -8 -25 -32 -6 -25 18 -22 26 7 26 18 0 25 -5
25 -20z m-41 -110 c1 -16 -138 -422 -138 -406 -1 21 78 427 86 439 4 7 52 -23
52 -33z"/>
<path d="M7841 3650 c-81 -20 -113 -57 -121 -140 -5 -53 -6 -55 -37 -58 -24
-2 -33 -8 -33 -22 0 -14 9 -20 33 -22 l32 -3 3 -164 c3 -176 -2 -194 -52 -204
-11 -2 38 -4 109 -4 72 -1 121 2 110 4 -43 11 -45 18 -45 199 l0 174 30 0 c23
0 30 4 30 20 0 16 -7 20 -30 20 l-31 0 3 88 c3 85 3 87 28 87 22 0 25 -4 25
-33 0 -50 39 -67 83 -36 30 21 29 59 -3 80 -30 19 -88 26 -134 14z"/>
<path d="M4100 3629 c14 -6 35 -20 47 -31 23 -21 23 -25 23 -268 0 -273 1
-270 -66 -290 -20 -6 6 -8 86 -9 112 0 114 0 75 14 -22 8 -41 15 -42 15 0 0
-6 14 -12 31 -12 36 -16 429 -3 428 4 0 99 -114 212 -254 113 -140 208 -255
213 -255 4 0 7 129 7 288 0 160 4 294 10 302 5 8 24 20 42 27 29 10 21 11 -72
11 -79 0 -97 -2 -74 -9 55 -16 59 -28 62 -201 2 -87 0 -158 -5 -158 -4 0 -73
83 -153 185 l-145 184 -115 0 c-87 0 -109 -3 -90 -10z"/>
<path d="M6273 3630 c59 -18 57 -10 57 -295 0 -285 1 -277 -57 -295 -18 -5 30
-8 132 -8 127 0 152 2 122 10 -50 13 -57 34 -57 162 l0 103 85 5 c139 9 205
64 205 171 0 55 -31 103 -85 131 -36 19 -59 21 -235 23 -125 1 -185 -1 -167
-7z m286 -34 c37 -19 51 -55 51 -127 0 -56 -3 -64 -34 -95 -26 -26 -42 -34
-70 -34 l-36 0 0 135 0 135 30 0 c17 0 43 -6 59 -14z"/>
<path d="M5373 3569 c-17 -25 -57 -69 -87 -97 -31 -28 -56 -53 -56 -56 0 -3
11 -6 25 -6 l25 0 0 -137 c0 -76 5 -155 11 -176 11 -41 56 -77 97 -77 41 0 90
27 107 59 18 37 10 40 -22 9 -19 -18 -28 -20 -41 -12 -15 10 -17 33 -20 173
l-2 161 50 0 c43 0 50 3 50 20 0 17 -7 20 -50 20 l-49 0 -3 83 -3 82 -32 -46z"/>
<path d="M8926 3569 c-16 -24 -56 -70 -90 -101 l-61 -58 33 0 32 0 0 -160 0
-160 29 -32 c26 -29 35 -33 81 -33 46 0 55 4 81 33 36 40 38 60 3 33 -62 -49
-74 -21 -74 168 l0 151 50 0 c43 0 50 3 50 20 0 17 -7 20 -50 20 l-49 0 -3 82
-3 82 -29 -45z"/>
<path d="M4895 3448 c-112 -61 -151 -229 -80 -344 73 -117 239 -119 320 -5 26
38 30 52 33 124 3 74 0 88 -25 137 -36 69 -89 100 -172 100 -31 0 -65 -6 -76
-12z m130 -48 c16 -30 22 -234 9 -299 -9 -43 -46 -68 -79 -53 -37 17 -48 71
-44 214 3 107 7 129 23 147 29 32 72 28 91 -9z"/>
<path d="M6945 3444 c-67 -35 -104 -95 -112 -184 -11 -118 44 -216 135 -240
74 -19 161 20 197 91 23 43 18 44 -25 5 -53 -47 -90 -48 -135 -3 -33 33 -61
106 -51 133 4 11 31 14 117 14 l112 0 -7 47 c-13 93 -73 153 -155 153 -25 0
-59 -7 -76 -16z m106 -34 c10 -14 19 -47 21 -75 l3 -50 -62 -3 -63 -3 0 41 c0
42 11 72 38 103 20 23 40 19 63 -13z"/>
<path d="M7464 3415 c-24 -25 -47 -45 -49 -45 -3 0 -5 18 -5 40 l0 40 -86 0
c-54 0 -83 -4 -79 -10 3 -5 12 -10 20 -10 7 0 16 -7 19 -16 9 -22 7 -337 -2
-350 -4 -6 -16 -16 -27 -22 -16 -9 6 -11 100 -11 79 0 113 3 98 9 -33 13 -43
41 -43 118 0 100 16 173 44 201 l24 24 37 -23 c44 -27 78 -17 89 25 11 42 -16
75 -59 75 -29 0 -44 -9 -81 -45z"/>
<path d="M8078 3440 c-157 -83 -135 -383 30 -419 73 -15 119 -1 170 54 55 61
57 91 2 41 -53 -48 -91 -49 -135 -2 -31 34 -62 117 -50 137 4 5 57 9 119 9
l113 0 -8 47 c-24 129 -133 189 -241 133z m111 -21 c17 -19 34 -111 24 -131
-2 -5 -31 -8 -64 -8 l-59 0 0 34 c0 59 35 126 66 126 7 0 22 -9 33 -21z"/>
<path d="M8495 3441 c-73 -45 -105 -108 -105 -208 1 -112 51 -189 140 -213 64
-17 151 15 190 70 28 40 20 48 -19 19 -97 -71 -191 25 -191 193 0 88 20 131
58 126 27 -3 33 -14 47 -81 11 -57 96 -59 111 -3 8 32 -19 82 -56 101 -42 21
-138 20 -175 -4z"/>
</g>
</svg>
